<svg width="169" height="28" viewBox="0 0 169 28" fill="none" xmlns="http://www.w3.org/2000/svg">
<circle cx="14.0745" cy="14.2551" r="13.2551" stroke="#F3D677" stroke-width="0.671795"/>
<path fill-rule="evenodd" clip-rule="evenodd" d="M9.60203 9.55917C9.26929 9.77724 9.26929 10.265 9.60203 10.483L13.1509 12.8089C13.5182 13.0496 14.0059 12.7861 14.0059 12.3469V11.2157C14.4354 11.1978 14.8669 11.2635 15.2757 11.4118C15.9346 11.6508 16.5008 12.0922 16.8933 12.6728C17.2859 13.2534 17.4845 13.9434 17.4608 14.6438C17.4371 15.3442 17.1922 16.0192 16.7614 16.5719C16.3305 17.1246 15.7357 17.5268 15.0622 17.7207C14.3887 17.9146 13.6711 17.8903 13.0123 17.6513C12.3535 17.4123 11.7872 16.9708 11.3947 16.3902C11.1406 16.0144 10.9677 15.5927 10.8838 15.152C10.8078 14.7524 10.4977 14.4081 10.0912 14.3943L9.08419 14.3602C8.67772 14.3465 8.3322 14.666 8.37003 15.0709C8.46027 16.037 8.79198 16.9692 9.33979 17.7795C10.0257 18.794 11.0152 19.5654 12.1664 19.983C13.3177 20.4006 14.5716 20.4431 15.7484 20.1043C16.9253 19.7655 17.9646 19.0628 18.7176 18.0969C19.4705 17.1311 19.8984 15.9517 19.9398 14.7277C19.9812 13.5038 19.6341 12.2981 18.9482 11.2836C18.2623 10.269 17.2729 9.49764 16.1216 9.08002C15.4399 8.83273 14.7223 8.71699 14.0059 8.73404V7.69527C14.0059 7.25612 13.5182 6.99262 13.1509 7.23334L9.60203 9.55917Z" fill="url(#paint0_linear_13_204)"/>
<path d="M47.7378 7.70513H50.0238V20.7551H47.7378V14.9951H41.5098V20.7551H39.2238V7.70513H41.5098V13.1051H47.7378V7.70513ZM58.7454 16.9391V16.2011C55.6854 16.4891 54.4434 16.9391 54.4434 18.0371C54.4434 18.8831 55.1454 19.3871 56.2254 19.3871C57.8094 19.3871 58.7454 18.5951 58.7454 16.9391ZM55.7574 20.9891C53.6514 20.9891 52.1754 19.8551 52.1754 18.0911C52.1754 15.6611 55.1634 15.0851 58.6914 14.7071V14.5271C58.6914 12.8711 57.7554 12.3671 56.6754 12.3671C55.5954 12.3671 54.7854 12.9431 54.7314 14.1131H52.6254C52.7694 12.1511 54.4074 10.7831 56.7474 10.7831C59.0694 10.7831 60.8874 11.8451 60.8334 14.9411C60.8334 15.4091 60.7974 16.5611 60.7974 17.4431C60.7974 18.6671 60.8874 19.9451 61.0854 20.7551H59.1234C59.0514 20.3411 58.9974 20.1071 58.9434 19.4411C58.3134 20.5031 57.1974 20.9891 55.7574 20.9891ZM70.6315 20.7551H68.4895V17.0111C67.4635 17.2811 66.6535 17.3891 65.7715 17.3891C63.7375 17.3891 62.5855 16.4351 62.5855 14.3291V11.0711H64.7275V13.9511C64.7275 15.1751 65.3035 15.6431 66.6175 15.6431C67.1755 15.6431 67.7515 15.5711 68.4895 15.3731V11.0711H70.6315V20.7551ZM79.136 16.9391V16.2011C76.076 16.4891 74.834 16.9391 74.834 18.0371C74.834 18.8831 75.536 19.3871 76.616 19.3871C78.2 19.3871 79.136 18.5951 79.136 16.9391ZM76.148 20.9891C74.042 20.9891 72.566 19.8551 72.566 18.0911C72.566 15.6611 75.554 15.0851 79.082 14.7071V14.5271C79.082 12.8711 78.146 12.3671 77.066 12.3671C75.986 12.3671 75.176 12.9431 75.122 14.1131H73.016C73.16 12.1511 74.798 10.7831 77.138 10.7831C79.46 10.7831 81.278 11.8451 81.224 14.9411C81.224 15.4091 81.188 16.5611 81.188 17.4431C81.188 18.6671 81.278 19.9451 81.476 20.7551H79.514C79.442 20.3411 79.388 20.1071 79.334 19.4411C78.704 20.5031 77.588 20.9891 76.148 20.9891ZM91.0615 12.7631H87.7675V20.7551H85.6255V12.7631H82.3135V11.0711H91.0615V12.7631ZM94.7627 14.3291H96.7607C99.4247 14.3291 100.541 15.3371 100.541 17.4791C100.541 19.9271 99.2087 20.7551 96.7967 20.7551H92.6207V11.0711H94.7627V14.3291ZM94.7627 19.0631H96.5087C97.7867 19.0631 98.4167 18.6311 98.4167 17.4611C98.4167 16.3811 97.7867 16.0211 96.4907 16.0211H94.7627V19.0631ZM112.431 15.6431C113.493 15.9491 114.141 16.6151 114.141 17.9111C114.141 20.0531 112.269 20.9891 109.839 20.9891C107.715 20.9891 105.825 20.0711 105.483 17.6051H107.535C107.733 18.7031 108.543 19.4051 109.911 19.4051C111.279 19.4051 111.999 18.8651 111.999 18.0191C111.999 17.0111 111.315 16.6331 110.091 16.6331H108.507V14.9591H109.983C111.045 14.9591 111.711 14.5991 111.711 13.7531C111.711 12.8711 111.189 12.4211 109.983 12.4211C108.777 12.4211 107.805 12.9971 107.643 14.2031H105.591C105.933 11.9171 107.877 10.8191 110.019 10.8191C112.125 10.8191 113.835 11.6651 113.835 13.6091C113.835 14.5631 113.367 15.2291 112.431 15.6431ZM121.886 16.9391V16.2011C118.826 16.4891 117.584 16.9391 117.584 18.0371C117.584 18.8831 118.286 19.3871 119.366 19.3871C120.95 19.3871 121.886 18.5951 121.886 16.9391ZM118.898 20.9891C116.792 20.9891 115.316 19.8551 115.316 18.0911C115.316 15.6611 118.304 15.0851 121.832 14.7071V14.5271C121.832 12.8711 120.896 12.3671 119.816 12.3671C118.736 12.3671 117.926 12.9431 117.872 14.1131H115.766C115.91 12.1511 117.548 10.7831 119.888 10.7831C122.21 10.7831 124.028 11.8451 123.974 14.9411C123.974 15.4091 123.938 16.5611 123.938 17.4431C123.938 18.6671 124.028 19.9451 124.226 20.7551H122.264C122.192 20.3411 122.138 20.1071 122.084 19.4411C121.454 20.5031 120.338 20.9891 118.898 20.9891ZM134.834 20.7551H132.692V16.6331H128.372V20.7551H126.23V11.0711H128.372V14.9411H132.692V11.0711H134.834V20.7551ZM138.903 15.9311C138.903 18.1631 140.091 19.2431 141.459 19.2431C142.827 19.2431 144.015 18.1631 144.015 15.9311C144.015 13.6991 142.827 12.6011 141.459 12.6011C140.091 12.6011 138.903 13.6991 138.903 15.9311ZM141.459 10.8551C143.817 10.8551 146.229 12.4391 146.229 15.9311C146.229 19.4411 143.817 20.9891 141.459 20.9891C139.101 20.9891 136.689 19.4411 136.689 15.9311C136.689 12.4391 139.101 10.8551 141.459 10.8551ZM148.08 11.0711H152.634C154.65 11.0711 156.27 11.5751 156.27 13.5731C156.27 14.5631 155.838 15.2471 154.992 15.6251C155.946 15.9131 156.666 16.5791 156.666 17.8571C156.666 19.9271 155.046 20.7551 152.868 20.7551H148.08V11.0711ZM150.222 15.0311H152.472C153.534 15.0311 154.146 14.7251 154.146 13.8611C154.146 13.0151 153.516 12.7451 152.454 12.7451H150.222V15.0311ZM150.222 16.5791V19.0811H152.616C153.894 19.0811 154.524 18.6491 154.524 17.7851C154.524 16.8671 153.894 16.5791 152.598 16.5791H150.222ZM160.085 15.9311C160.085 18.1631 161.273 19.2431 162.641 19.2431C164.009 19.2431 165.197 18.1631 165.197 15.9311C165.197 13.6991 164.009 12.6011 162.641 12.6011C161.273 12.6011 160.085 13.6991 160.085 15.9311ZM162.641 10.8551C164.999 10.8551 167.411 12.4391 167.411 15.9311C167.411 19.4411 164.999 20.9891 162.641 20.9891C160.283 20.9891 157.871 19.4411 157.871 15.9311C157.871 12.4391 160.283 10.8551 162.641 10.8551Z" fill="#F3D87B"/>
<defs>
<linearGradient id="paint0_linear_13_204" x1="8.36719" y1="13.7031" x2="23.0031" y2="11.0336" gradientUnits="userSpaceOnUse">
<stop stop-color="#F3D677"/>
<stop offset="1" stop-color="#F3D97D"/>
</linearGradient>
</defs>
</svg>
